<svg width="25" height="24" viewBox="0 0 25 24" fill="none" xmlns="http://www.w3.org/2000/svg">
<path d="M12.5001 21.25C12.3101 21.25 12.1201 21.18 11.9701 21.03L5.90012 14.96C5.61012 14.67 5.61012 14.19 5.90012 13.9C6.19012 13.61 6.67012 13.61 6.96012 13.9L12.5001 19.44L18.0401 13.9C18.3301 13.61 18.8101 13.61 19.1001 13.9C19.3901 14.19 19.3901 14.67 19.1001 14.96L13.0301 21.03C12.8801 21.18 12.6901 21.25 12.5001 21.25Z" fill="white"/>
<path d="M12.5 21.08C12.09 21.08 11.75 20.74 11.75 20.33V3.5C11.75 3.09 12.09 2.75 12.5 2.75C12.91 2.75 13.25 3.09 13.25 3.5V20.33C13.25 20.74 12.91 21.08 12.5 21.08Z" fill="white"/>
</svg>
